<?xml version="1.0" standalone="no"?>
<!DOCTYPE svg PUBLIC "-//W3C//DTD SVG 1.1//EN" "http://www.w3.org/Graphics/SVG/1.1/DTD/svg11.dtd" >
<svg xmlns="http://www.w3.org/2000/svg">
<metadata>Generated by IcoMoon</metadata>
<defs>
<font id="fb-icons-client" horiz-adv-x="1024">
<font-face units-per-em="1024" ascent="960" descent="-64" />
<missing-glyph horiz-adv-x="1024" />
<glyph unicode="&#x20;" horiz-adv-x="512" d="" />
<glyph unicode="&#xe900;" glyph-name="accordion-arrow-close" d="M15.568 434.657l43.366-45.652c11.412-11.412 29.672-11.412 38.801 0l358.153 359.216 3.607-785.787c0-13.697 11.412-27.388 27.393-27.388h53.831c13.691 0 27.388 13.691 27.388 27.388v780.595l358.156-354.025c9.129-11.412 27.388-11.412 38.8 0l43.367 45.652c11.407 9.129 11.407 27.388 0 38.8l-477.030 477.030c-11.412 11.412-27.393 11.412-38.805 0l-477.028-477.030c-11.412-11.412-11.412-29.671 0-38.8z" />
<glyph unicode="&#xe901;" glyph-name="edward-arrow--left" horiz-adv-x="1707" d="M82.583 405.018h1624.084v43.413h-1624.084l203.923 203.537-30.506 30.699-256-255.945 256-256.055 30.506 30.699-203.923 203.652z" />
<glyph unicode="&#xe902;" glyph-name="edward-arrow--right" horiz-adv-x="1707" d="M1624.085 405.018h-1624.085v43.413h1624.085l-203.925 203.537 30.507 30.699 256-255.945-256-256.055-30.507 30.699 203.925 203.652z" />
<glyph unicode="&#xe903;" glyph-name="stanley-arrow--left" horiz-adv-x="3072" d="M82.583 426.292h2904.084v43.418h-2904.084l308.31 310.259-30.506 30.699-360.387-362.667 360.387-362.667 30.506 30.699-308.31 310.259z" />
<glyph unicode="&#xe904;" glyph-name="stanley-arrow--right" horiz-adv-x="3072" d="M2989.419 426.292h-2904.085v43.418h2904.085l-308.314 310.259 30.507 30.699 360.388-362.667-360.388-362.667-30.507 30.699 308.314 310.259z" />
<glyph unicode="&#xe905;" glyph-name="accordion-arrow-open" d="M15.569 459.435l43.366 45.645c11.412 11.412 29.672 11.412 38.801 0l358.152-359.216 3.607 785.786c0 13.695 11.412 27.389 27.393 27.389h53.831c13.691 0 27.388-13.694 27.388-27.389v-780.597l358.156 354.025c9.129 11.412 27.388 11.412 38.8 0l43.367-45.645c11.407-9.135 11.407-27.393 0-38.805l-477.030-477.030c-11.412-11.412-27.393-11.412-38.805 0l-477.027 477.030c-11.412 11.412-11.412 29.671 0 38.805z" />
<glyph unicode="&#xe906;" glyph-name="accordion-chevron-close" d="M9.14 188.314l43.969-46.285c11.57-9.254 30.084-9.254 39.34 0l421.168 418.857 418.861-418.857c9.254-9.254 27.767-9.254 39.337 0l43.969 46.285c11.57 11.57 11.57 27.767 0 39.337l-483.655 485.968c-11.57 9.257-27.767 9.257-39.337 0l-483.653-485.968c-11.57-11.57-11.57-27.767 0-39.337z" />
<glyph unicode="&#xe907;" glyph-name="accordion-chevron-open" d="M9.148 667.336l43.969 46.282c11.57 9.257 30.084 9.257 39.34 0l421.174-418.859 418.856 418.859c9.254 9.257 27.767 9.257 39.337 0l43.969-46.282c11.57-11.57 11.57-27.77 0-39.34l-483.65-485.968c-11.57-9.254-27.772-9.254-39.343 0l-483.652 485.968c-11.57 11.57-11.57 27.77 0 39.34z" />
<glyph unicode="&#xe908;" glyph-name="accordion-plus-close" d="M47.467 474.129h417.071c0 0 19.727 0 47.462 0 25.573 0 47.468 0 47.468 0h417.068c25.569 0 47.468-21.893 47.468-47.462 0-27.739-21.534-47.462-47.468-47.462h-417.068c0 0-21.534 0-47.468 0-28.094 0-47.462 0-47.462 0h-417.071c-28.094 0-47.463 19.368-47.463 47.462 0 25.932 19.725 47.462 47.463 47.462z" />
<glyph unicode="&#xe909;" glyph-name="accordion-plus-open" d="M47.467 474.129h417.071v417.073c0 25.931 19.727 47.463 47.462 47.463 25.573 0 47.468-21.893 47.468-47.463v-417.073h417.068c25.569 0 47.468-21.893 47.468-47.462 0-27.739-21.534-47.462-47.468-47.462h-417.068v-417.073c0-27.739-21.534-47.462-47.468-47.462-28.094 0-47.462 19.368-47.462 47.462v417.073h-417.071c-28.094 0-47.463 19.368-47.463 47.462 0 25.932 19.725 47.462 47.463 47.462z" />
<glyph unicode="&#xe90a;" d="M10.667 426.667c0-282.769 229.231-512 512-512s512 229.231 512 512c0 282.769-229.231 512-512 512s-512-229.229-512-512z" />
<glyph unicode="&#xe90b;" d="M423.203 582.65l8.080-8.080c5.355-5.356 5.355-14.039 0-19.395l-95.916-95.364h429.587c7.573 0 13.713-6.14 13.713-13.717v-11.425c0-7.573-6.14-13.713-13.713-13.713h-429.587l95.916-95.369c5.355-5.355 5.355-14.037 0-19.392l-8.080-8.081c-5.356-5.355-14.039-5.355-19.395 0l-133.125 132.571c-5.356 5.359-5.356 14.041 0 19.396l133.125 132.571c5.355 5.357 14.039 5.357 19.395 0z" />
<glyph unicode="&#xe90c;" d="M1056 426.667c0-282.769-229.231-512-512-512s-512 229.231-512 512c0 282.769 229.231 512 512 512s512-229.229 512-512z" />
<glyph unicode="&#xe90d;" d="M643.465 582.65l-8.081-8.080c-5.355-5.356-5.355-14.039 0-19.395l95.915-95.364h-429.584c-7.575 0-13.715-6.14-13.715-13.717v-11.425c0-7.573 6.141-13.713 13.715-13.713h429.584l-95.915-95.369c-5.355-5.355-5.355-14.037 0-19.392l8.081-8.081c5.355-5.355 14.037-5.355 19.392 0l133.129 132.571c5.355 5.359 5.355 14.041 0 19.396l-133.129 132.571c-5.355 5.357-14.037 5.357-19.392 0z" />
<glyph unicode="&#xe90e;" glyph-name="facebook" d="M736.499 362.667l28.442 185.32h-177.822v120.26c0 50.7 24.841 100.12 104.482 100.12h80.841v157.78c0 0-73.361 12.52-143.501 12.52-146.441 0-242.161-88.76-242.161-249.44v-141.24h-162.78v-185.32h162.78v-448h200.339v448h149.38z" />
<glyph unicode="&#xe90f;" glyph-name="instagram" d="M512.35 656.317c-127.2 0-229.8-102.6-229.8-229.799 0-127.202 102.6-229.803 229.8-229.803 127.202 0 229.798 102.601 229.798 229.803 0 127.199-102.596 229.799-229.798 229.799zM512.35 277.116c-82.202 0-149.4 66.999-149.4 149.402 0 82.398 67.002 149.399 149.4 149.399 82.402 0 149.402-67.002 149.402-149.399 0-82.402-67.2-149.402-149.402-149.402zM805.15 665.717c0-29.8-24-53.6-53.598-53.6-29.803 0-53.602 24-53.602 53.6s24 53.6 53.602 53.6c29.598 0 53.598-24 53.598-53.6zM957.35 611.317c-3.401 71.8-19.802 135.4-72.401 187.8-52.399 52.4-115.998 68.8-187.797 72.4-74.001 4.2-295.802 4.2-369.802 0-71.6-3.4-135.2-19.8-187.8-72.2s-68.8-116-72.4-187.8c-4.2-74-4.2-295.8 0-369.801 3.4-71.799 19.8-135.398 72.4-187.797 52.6-52.403 116-68.8 187.8-72.401 74-4.198 295.801-4.198 369.802 0 71.799 3.401 135.398 19.802 187.797 72.401 52.399 52.399 68.8 115.998 72.401 187.797 4.198 74.001 4.198 295.601 0 369.601zM861.751 162.317c-15.603-39.202-45.803-69.402-85.201-85.201-58.999-23.398-199.002-18.001-264.201-18.001s-205.4-5.197-264.2 18.001c-39.2 15.599-69.4 45.803-85.2 85.201-23.4 58.999-18 199.002-18 264.201s-5.2 205.399 18 264.199c15.6 39.2 45.8 69.4 85.2 85.2 59 23.4 199.001 18 264.2 18s205.402 5.2 264.201-18c39.198-15.6 69.402-45.8 85.201-85.2 23.398-59 17.997-199 17.997-264.199s5.402-205.402-17.997-264.201z" />
<glyph unicode="&#xe910;" glyph-name="linkedin" d="M264.56 42.688h-185.76v598.199h185.76v-598.199zM171.58 722.487c-59.4 0-107.58 49.2-107.58 108.6 0 28.532 11.334 55.895 31.509 76.071s47.539 31.509 76.071 31.509c28.532 0 55.895-11.334 76.070-31.509s31.509-47.539 31.509-76.071c0-59.4-48.2-108.6-107.58-108.6zM959.799 42.688h-185.361v291.2c0 69.397-1.399 158.4-96.58 158.4-96.58 0-111.377-75.401-111.377-153.399v-296.201h-185.561v598.199h178.159v-81.6h2.603c24.798 47 85.38 96.6 175.761 96.6 187.998 0 222.558-123.8 222.558-284.601v-328.597h-0.201z" />
<glyph unicode="&#xe911;" glyph-name="pinterest" d="M992 442.667c0-274.001-221.999-496-496-496-51.2 0-100.4 7.799-146.8 22.199 20.2 33.003 50.4 87.002 61.6 130.001 6 23.198 30.8 117.999 30.8 117.999 16.201-30.801 63.398-56.998 113.6-56.998 149.602 0 257.399 137.6 257.399 308.599 0 163.799-133.798 286.4-305.801 286.4-213.999 0-327.799-143.6-327.799-300.202 0-72.798 38.8-163.396 100.6-192.196 9.4-4.403 14.4-2.402 16.6 6.601 1.6 6.797 10 40.597 13.8 56.196 1.2 5.001 0.6 9.404-3.4 14.199-20.2 25.003-36.6 70.601-36.6 113.203 0 109.399 82.8 215.199 223.999 215.199 121.801 0 207.202-83 207.202-201.802 0-134.199-67.802-227.2-156.002-227.2-48.597 0-85.201 40.201-73.399 89.6 13.999 58.999 40.998 122.603 40.998 165.201 0 38.001-20.399 69.801-62.797 69.801-49.801 0-89.801-51.4-89.801-120.399 0-44.002 14.8-73.6 14.8-73.6s-49-207.599-58-246.4c-10-42.799-6-103.202-1.8-142.4-184.4 72.201-315.2 251.797-315.2 461.999 0 274 222 496 496 496s496-222 496-496z" />
<glyph unicode="&#xe912;" glyph-name="tiktok" d="M959.74 518.847c-88.051-0.211-173.939 27.249-245.538 78.5v-357.44c-0.026-66.202-20.262-130.816-58.001-185.207s-91.183-95.966-153.19-119.164c-62.003-23.194-129.612-26.91-193.784-10.645-64.173 16.269-121.85 51.738-165.32 101.666s-70.661 111.94-77.936 177.741c-7.276 65.801 5.711 132.258 37.223 190.477 31.512 58.223 80.047 105.434 139.117 135.326s125.856 41.038 191.431 31.948v-179.779c-30.007 9.438-62.23 9.152-92.066-0.815s-55.76-29.103-74.069-54.682c-18.31-25.579-28.069-56.29-27.884-87.748 0.186-31.454 10.305-62.046 28.915-87.411 18.609-25.361 44.756-44.194 74.708-53.807s62.174-9.519 92.067 0.273c29.897 9.792 55.932 28.779 74.389 54.251 18.458 25.468 28.399 56.119 28.399 87.578v698.761h176c-0.124-14.863 1.122-29.705 3.721-44.34 6.114-32.669 18.829-63.748 37.367-91.335s42.513-51.101 70.451-69.105c39.748-26.282 86.349-40.29 133.999-40.28v-174.76z" />
<glyph unicode="&#xe913;" glyph-name="twitter" d="M918.741 635.237c0.649-9.096 0.649-18.194 0.649-27.29 0-277.438-211.166-597.114-597.116-597.114-118.904 0-229.36 34.436-322.274 94.212 16.894-1.95 33.136-2.598 50.68-2.598 98.11 0 188.426 33.135 260.548 89.664-92.264 1.95-169.584 62.374-196.224 145.54 12.996-1.946 25.99-3.247 39.636-3.247 18.842 0 37.686 2.603 55.228 7.147-96.162 19.494-168.286 103.962-168.286 205.97v2.598c27.938-15.594 60.428-25.34 94.862-26.638-56.528 37.686-93.562 102.010-93.562 174.782 0 38.984 10.394 74.72 28.588 105.908 103.31-127.35 258.6-210.516 432.73-219.614-3.247 15.594-5.197 31.836-5.197 48.080 0 115.656 93.564 209.868 209.865 209.868 60.429 0 115.004-25.34 153.34-66.274 47.433 9.096 92.915 26.64 133.201 50.68-15.599-48.732-48.734-89.666-92.267-115.654 42.236 4.546 83.17 16.244 120.853 32.486-28.582-41.582-64.32-78.616-105.254-108.506z" />
<glyph unicode="&#xe914;" glyph-name="vimeo" d="M959.599 631.705c-3.998-87.2-64.798-206.599-182.801-358.198-121.796-158.4-224.798-237.602-309.197-237.602-52.201 0-96.401 48.201-132.601 144.602-70.4 258.398-100.4 409.799-158.6 409.799-6.8 0-30.2-14.2-70.4-42.2l-42 54.4c103.2 90.6 201.8 191.4 263.6 197 69.8 6.8 112.6-41 128.801-143 57.399-363 82.799-417.801 187.2-253.398 37.397 59.2 57.6 104.196 60.399 135.198 9.6 91.8-71.599 85.6-126.601 62 44.002 144.2 128.201 214.2 252.399 210.2 91.601-2.4 135.002-62.2 129.801-178.8z" />
<glyph unicode="&#xe915;" glyph-name="youtube" d="M982.618 671.853c-11.166 42.045-44.066 75.157-85.841 86.395-75.712 20.419-379.324 20.419-379.324 20.419s-303.609 0-379.327-20.419c-41.772-11.239-74.672-44.35-85.838-86.395-20.288-76.208-20.288-235.21-20.288-235.21s0-159.002 20.288-235.209c11.166-42.044 44.066-73.775 85.838-85.013 75.718-20.42 379.327-20.42 379.327-20.42s303.607 0 379.324 20.42c41.775 11.238 74.675 42.97 85.841 85.013 20.288 76.207 20.288 235.209 20.288 235.209s0 159.002-20.288 235.21zM418.155 292.284v288.721l253.76-144.367-253.76-144.354z" />
<glyph unicode="&#xe916;" glyph-name="pinterest-letter" d="M287.059 132.779c-8.579-42.419-3.848-128.456-1.294-164.92 0.728-10.388 7.467-22.328 17.192-26.056 12.174-4.664 25.969 2.944 32.594 14.172 25.075 42.496 55.462 101.202 67.63 146.698l41.165 145.613c20.89-37.478 79.257-69.427 138.853-69.427 187.392 0 318.259 169.574 318.259 380.928 0 201.523-164.659 353.28-376.013 353.28-265.42 0-403.045-176.333-403.045-370.483 0-90.317 45.466-202.138 124.109-236.544 10.445-7.373 17.204-3.686 17.204 6.758l17.818 66.97c1.843 9.216 1.843 14.131-3.687 17.818-28.262 35.021-45.466 88.474-45.466 141.312 0 135.782 101.99 264.806 275.251 264.806 151.756 0 257.433-100.762 257.433-248.218 0-164.659-84.787-281.395-194.15-281.395-61.438 0-103.833 52.838-93.388 113.050 17.818 72.499 52.837 148.070 52.837 200.909 0 49.766-24.575 88.474-77.413 88.474-60.211 0-113.050-63.283-113.050-148.070 0-56.525 17.818-92.16 17.818-92.16l-70.657-303.514z" />
<glyph unicode="&#xe917;" glyph-name="cf-checkbox-icon" d="M174.697 37.798l-166.149 344.641c-10.257 20.62-11.282 41.238-3.076 61.86 9.231 21.598 24.616 37.311 46.153 47.122 22.565 9.82 44.613 10.312 66.152 1.478 22.565-7.857 38.975-22.1 49.229-42.72l153.842-318.118c0-0.987 0.512-1.478 1.539-1.478 2.051 0 3.079 0.492 3.079 1.478 156.916 253.318 339.477 497.31 547.671 731.981 15.389 17.673 34.873 26.999 58.461 27.983 24.613 0.982 45.641-5.891 63.078-20.62 18.46-15.709 28.199-35.347 29.229-58.911 1.023-22.584-6.153-42.709-21.542-60.385-202.045-227.791-381.008-467.37-536.908-718.73-29.743-48.109-73.327-72.163-130.763-72.163h-36.922c-25.642 0-49.743 6.871-72.305 20.62-22.565 14.727-39.485 33.382-50.769 55.966z" />
<glyph unicode="&#xe918;" glyph-name="burger-1" d="M117.333 736h789.333v-64h-789.333v64zM117.333 458.667h789.333v-64h-789.333v64zM117.333 181.334h789.333v-64h-789.333v64z" />
<glyph unicode="&#xe919;" glyph-name="burger-2" d="M512 772.267h477.867v-34.133h-477.867v34.133zM989.866 396.801h-955.734v34.133h955.734v-34.133zM273.066 81.067v34.133h716.8v-34.133h-716.8z" />
<glyph unicode="&#xe91a;" glyph-name="burger-3" d="M0 529.249c0 6.489 0 9.127 0 9.127h1024c0 0 0-26.55 0-11.31 0-6.988 0-16.072 0-16.072h-1024c0 0 0 11.267 0 18.255zM0 326.939c0 6.49 0 15.398 0 15.398h1024c0 0 0-8.909 0-15.398 0-6.989 0-11.981 0-11.981h-1024c0 0 0 4.992 0 11.981z" />
<glyph unicode="&#xe91b;" glyph-name="to-top" d="M512 853.334l320-318.415-30.771-30.62-267.469 266.148v-770.447h-43.52v770.447l-267.469-266.148-30.771 30.62 320 318.415z" />
<glyph unicode="&#xe91c;" glyph-name="slideshow-controls-arrow-1--next" d="M475.337 704.205l30.167 29.662 313.696-308.463-313.696-308.466-30.167 29.662 262.95 258.563h-533.489v40.455h533.517l-262.977 258.588z" />
<glyph unicode="&#xe91d;" glyph-name="slideshow-controls-arrow-1--prev" d="M548.663 704.205l-30.167 29.662-313.696-308.463 313.696-308.466 30.167 29.662-262.95 258.563h533.491v40.455h-533.517l262.976 258.588z" />
<glyph unicode="&#xe91e;" glyph-name="slideshow-controls-arrow-2--next" d="M729.165 725.334l294.835-277.333-294.835-277.333-21.056 19.558 258.889 243.947h-966.997v27.657h966.997l-258.889 243.948 21.056 19.557z" />
<glyph unicode="&#xe91f;" glyph-name="slideshow-controls-arrow-2--prev" d="M294.834 725.334l-294.834-277.333 294.835-277.333 21.057 19.558-258.888 243.947h966.996v27.657h-966.996l258.888 243.948-21.057 19.557z" />
<glyph unicode="&#xe920;" glyph-name="slideshow-controls-arrow-3--next" d="M910.656 554.667l113.344-106.667-113.344-106.667-17.229 16.695 83.934 78.165h-977.361v23.612h977.361l-83.934 78.164 17.229 16.697z" />
<glyph unicode="&#xe921;" glyph-name="slideshow-controls-arrow-3--prev" d="M113.342 554.667l-113.342-106.667 113.342-106.667 17.228 16.695-83.931 78.165h977.361v23.612h-977.361l83.932 78.164-17.229 16.697z" />
<glyph unicode="&#xe922;" glyph-name="slideshow-controls-arrow-4--next" d="M405.408 733.867l-29.942-29.54 281.446-277.66-281.446-277.661 29.942-29.539 311.392 307.2-311.392 307.2z" />
<glyph unicode="&#xe923;" glyph-name="slideshow-controls-arrow-4--prev" d="M618.592 733.867l29.942-29.54-281.446-277.66 281.446-277.661-29.942-29.539-311.392 307.2 311.392 307.2z" />
<glyph unicode="&#xe924;" d="M512-17.066c245.067 0 443.733 198.666 443.733 443.733s-198.666 443.733-443.733 443.733c-245.067 0-443.733-198.666-443.733-443.733s198.666-443.733 443.733-443.733z" />
<glyph unicode="&#xe925;" d="M449.014 628.365l-17.695-18.183 166.311-170.91-166.311-170.906 17.695-18.183 184.003 189.088-184.003 189.093z" />
<glyph unicode="&#xe926;" d="M512-17.066c-245.067 0-443.733 198.666-443.733 443.733s198.666 443.733 443.733 443.733c245.067 0 443.733-198.666 443.733-443.733s-198.666-443.733-443.733-443.733z" />
<glyph unicode="&#xe927;" d="M574.986 628.365l17.695-18.183-166.311-170.91 166.311-170.906-17.695-18.183-184.003 189.088 184.003 189.093z" />
<glyph unicode="&#xe928;" glyph-name="slideshow-controls-arrow-6--next" d="M955.733 426.667c0-245.067-198.666-443.733-443.733-443.733s-443.733 198.666-443.733 443.733c0 245.067 198.666 443.733 443.733 443.733s443.733-198.666 443.733-443.733zM449.010 648.245l-37.041-38.066 166.311-170.91-166.311-170.906 37.041-38.069 203.353 208.975-203.353 208.976z" />
<glyph unicode="&#xe929;" glyph-name="slideshow-controls-arrow-6--prev" d="M68.267 426.667c0-245.067 198.666-443.733 443.733-443.733s443.733 198.666 443.733 443.733c0 245.067-198.666 443.733-443.733 443.733s-443.733-198.666-443.733-443.733zM574.99 648.245l37.041-38.066-166.311-170.91 166.311-170.906-37.041-38.069-203.353 208.975 203.353 208.976z" />
<glyph unicode="&#xe92a;" glyph-name="close-thin" d="M240.915 697.752c8.332 8.332 21.839 8.332 30.17 0l240.916-240.915 240.913 240.915c8.333 8.332 21.841 8.332 30.17 0 8.333-8.331 8.333-21.839 0-30.17l-240.913-240.915 240.913-240.913c8.333-8.333 8.333-21.841 0-30.174-8.329-8.329-21.837-8.329-30.17 0l-240.913 240.917-240.916-240.917c-8.331-8.329-21.839-8.329-30.17 0-8.331 8.333-8.331 21.841 0 30.174l240.916 240.913-240.916 240.915c-8.331 8.331-8.331 21.839 0 30.17z" />
<glyph unicode="&#xe92b;" glyph-name="listing-lock" d="M746.666 469.334h-21.333v83.332c0 117.867-94.801 214.933-212.668 215.333-117.999 0.4-213.999-95.467-213.999-213.333v-85.332h-21.333c-35.333 0-64-28.668-64-64v-256c0-35.337 28.667-64 64-64h469.333c35.332 0 64 28.663 64 64v256c0 35.332-28.668 64-64 64zM341.332 554.666c0 94.133 76.533 170.667 170.667 170.667s170.667-76.533 170.667-170.667v-85.332h-341.333v85.332zM746.666 128h-469.333c-11.733 0-21.333 9.6-21.333 21.333v256c0 11.733 9.6 21.333 21.333 21.333h469.333c11.733 0 21.333-9.6 21.333-21.333v-256c0-11.733-9.6-21.333-21.333-21.333z" />
<glyph unicode="&#xe92c;" glyph-name="search-2" d="M448 789.334c-164.949 0-298.667-133.718-298.667-298.667s133.718-298.667 298.667-298.667c164.949 0 298.667 133.717 298.667 298.667s-133.717 298.667-298.667 298.667zM106.667 490.667c0 188.513 152.82 341.333 341.333 341.333s341.333-152.82 341.333-341.333c0-86.579-32.235-165.632-85.359-225.805l207.113-207.108c8.329-8.333 8.329-21.841 0-30.174-8.333-8.329-21.841-8.329-30.174 0l-207.108 207.113c-60.173-53.124-139.226-85.359-225.805-85.359-188.513 0-341.333 152.819-341.333 341.333z" />
<glyph unicode="&#xe92d;" glyph-name="mail" d="M137.6 772.267h748.8c46.802 0 86.4-39.6 86.4-86.4 0-28.8-14.397-54-35.999-70.2l-390.6-293.402c-21.601-16.2-48.602-16.2-70.201 0l-390.6 293.402c-21.6 16.2-34.2 41.4-34.2 70.2 0 46.8 37.8 86.4 86.4 86.4zM51.2 570.667l390.6-295.199c41.4-30.602 97.198-30.602 138.598 0l392.402 295.199v-374.4c0-64.799-52.198-115.2-115.2-115.2h-691.2c-64.8 0-115.2 50.401-115.2 115.2v374.4z" />
<glyph unicode="&#xe92e;" glyph-name="twitter-x" d="M806.463 889.469h157.019l-343.046-392.076 403.564-533.523h-316.035l-247.49 323.578-283.187-323.578h-157.115l366.918 419.366-387.091 506.233h323.961l223.71-295.766 258.792 295.766zM751.349 57.851h87.012l-561.629 742.571h-93.367l567.984-742.571z" />
<glyph unicode="&#xe92f;" glyph-name="warning-icon" horiz-adv-x="1003" d="M982.179 115.953c30.749-53.797-8.54-119.366-71.741-119.366h-818.208c-63.202 0-102.489 67.248-71.743 119.366l409.957 701.073c30.749 53.799 111.030 52.118 141.779 0l409.956-701.073zM502.189 262.221c-44.413 0-78.578-35.308-78.578-77.337 0-43.713 34.165-77.337 78.578-77.337 42.701 0 78.574 33.624 78.574 77.337 0 42.029-35.873 77.337-78.574 77.337zM427.027 539.623l11.956-228.648c1.708-11.768 10.252-18.493 20.5-18.493h83.698c10.248 0 18.792 6.726 20.5 18.493l11.956 228.648c1.708 11.769-8.54 21.856-20.5 21.856h-107.61c-11.96 0-22.209-10.087-20.5-21.856z" />
<glyph unicode="&#xe930;" glyph-name="location" d="M725.333 511.501c0 117.333-96 213.333-213.333 213.333-118.667 0-213.333-96-213.333-213.333 0-21.333 6.667-49.331 21.333-85.333 14.667-34.667 34.667-72 58.667-109.333 45.333-73.331 98.667-144 133.333-186.667 33.331 42.667 86.665 113.335 133.333 186.667 22.665 37.333 42.667 74.667 57.335 109.333 14.665 36.002 22.665 64 22.665 85.333zM768 511.501c0-117.333-155.998-324.002-225.331-410.667-16-20.002-46.669-20.002-62.669 0-68 86.665-224 293.333-224 410.667 0 141.333 114.667 256 256 256s256-114.667 256-256zM448 511.501c0-24 11.998-43.998 32-56 18.667-12.002 43.998-12.002 64 0 18.667 12.002 32 32 32 56 0 22.667-13.333 42.667-32 54.667-20.002 12-45.333 12-64 0-20.002-12-32-32-32-54.667zM512 404.835c-38.665 0-73.335 20.002-93.333 53.333-18.667 32-18.667 73.333 0 106.667 19.998 32 54.669 53.333 93.333 53.333 37.333 0 72-21.333 91.998-53.333 18.671-33.333 18.671-74.667 0-106.667-19.998-33.331-54.665-53.333-91.998-53.333z" />
<glyph unicode="&#xe931;" glyph-name="price" d="M810.667 427.334c0 106.667-57.335 204-149.333 257.333-93.333 54.667-206.669 54.667-298.667 0-93.333-53.333-149.333-150.667-149.333-257.333 0-107.998 56-205.333 149.333-258.667 91.998-54.669 205.333-54.669 298.667 0 91.998 53.333 149.333 150.669 149.333 258.667zM170.667 427.334c0 121.333 64 233.333 170.667 294.667 105.335 61.333 234.667 61.333 341.333 0 105.335-61.333 170.667-173.333 170.667-294.667 0-122.667-65.331-234.667-170.667-296-106.667-61.333-235.998-61.333-341.333 0-106.667 61.333-170.667 173.333-170.667 296zM533.333 608.667v-30.667c17.331-1.333 34.667-6.667 52.002-12 2.662 0 3.998-1.333 6.665-1.333 10.667-2.667 17.331-14.667 14.669-26.667-2.671-10.667-14.669-17.333-26.667-14.667-2.671 1.333-6.669 1.333-9.335 2.667-9.335 2.667-20.002 6.667-30.669 8-25.331 2.667-48 0-65.331-6.667-17.331-8-25.335-18.669-26.667-26.665-2.667-13.338 2.667-21.333 13.333-29.338 14.665-7.996 35.998-14.665 61.333-21.333v-1.331c24-6.665 52.002-14.669 73.335-27.998 25.331-17.335 35.998-45.338 30.665-76.002-5.333-28.002-25.331-48-50.667-57.331-11.998-5.333-27.998-9.335-43.998-9.335v-32c0-11.998-9.335-21.333-21.333-21.333-10.667 0-21.333 9.335-21.333 21.333v33.331c-10.667 2.671-28.002 8.004-42.667 12.002-9.335 2.667-18.671 5.333-28.002 8-10.667 4.002-17.333 16-13.333 27.998 4 10.667 16 16 26.667 13.338 9.335-2.671 17.331-6.669 26.667-9.335 14.669-4.002 30.669-8 37.333-9.335 26.667-3.998 49.331-1.331 64 4.002 14.669 6.665 22.665 16 25.335 26.667 1.331 14.669-2.671 25.335-14.669 33.331-16 10.667-34.667 16-54.665 21.333-2.671 0-5.333 1.335-8.004 2.671-23.996 5.333-49.331 13.329-69.333 26.667-10.667 6.665-21.331 16-27.998 27.998-6.667 13.333-8 27.998-5.333 43.998 5.333 28.002 26.667 46.669 52.002 57.335 9.331 4 21.333 8 32 9.333v33.333c0 10.667 9.331 21.333 21.333 21.333 11.998 0 21.333-10.667 21.333-21.333h1.331z" />
<glyph unicode="&#xe932;" glyph-name="clock" d="M810.667 427.334c0 106.667-57.335 204-149.333 257.333-93.333 54.667-206.669 54.667-298.667 0-93.333-53.333-149.333-150.667-149.333-257.333 0-107.998 56-205.333 149.333-258.667 91.998-54.669 205.333-54.669 298.667 0 91.998 53.333 149.333 150.669 149.333 258.667zM170.667 427.334c0 121.333 64 233.333 170.667 294.667 105.335 61.333 234.667 61.333 341.333 0 105.335-61.333 170.667-173.333 170.667-294.667 0-122.667-65.331-234.667-170.667-296-106.667-61.333-235.998-61.333-341.333 0-106.667 61.333-170.667 173.333-170.667 296zM490.667 619.334c0 10.667 9.335 21.333 21.333 21.333 10.667 0 21.333-10.667 21.333-21.333v-181.333l117.333-78.669c10.667-6.665 13.333-19.998 6.665-29.329-6.665-10.667-19.998-13.338-29.329-6.669l-128 85.333c-6.669 3.998-9.335 10.667-9.335 18.667v192z" />
</font>
</defs>
</svg>
